<svg width="137" height="137" viewBox="0 0 137 137" fill="none" xmlns="http://www.w3.org/2000/svg">
<path d="M83.3995 31.5128C81.3546 29.5493 78.9415 28.0096 76.2992 26.9823C73.6569 25.955 70.8375 25.4605 68.0033 25.5271C65.1691 25.5937 62.3761 26.2201 59.7849 27.3704C57.1938 28.5207 54.8558 30.1721 52.9053 32.2295M75.6667 125.833H83.4282C87.1146 125.833 90.765 125.107 94.1708 123.696C97.5766 122.286 100.671 120.218 103.278 117.611C105.885 115.005 107.952 111.91 109.363 108.504C110.774 105.098 111.5 101.448 111.5 97.7615V47C111.5 35.5957 106.97 24.6585 98.9056 16.5944C90.8415 8.53035 79.9043 4 68.5 4C57.0957 4 46.1585 8.53035 38.0944 16.5944C30.0303 24.6585 25.5 35.5957 25.5 47V97.1667M75.6667 125.833V118.667C75.6667 114.709 72.458 111.5 68.5 111.5H61.3333C57.3753 111.5 54.1667 114.709 54.1667 118.667V125.833C54.1667 129.791 57.3753 133 61.3333 133H68.5C72.458 133 75.6667 129.791 75.6667 125.833ZM25.5 97.1667V54.1667H18.3333C14.5319 54.1667 10.8862 55.6768 8.19814 58.3648C5.51011 61.0528 4 64.6986 4 68.5V82.8333C4 86.6348 5.51011 90.2805 8.19814 92.9685C10.8862 95.6565 14.5319 97.1667 18.3333 97.1667H25.5ZM111.5 54.1667H118.667C122.468 54.1667 126.114 55.6768 128.802 58.3648C131.49 61.0528 133 64.6986 133 68.5V82.8333C133 86.6348 131.49 90.2805 128.802 92.9685C126.114 95.6565 122.468 97.1667 118.667 97.1667H111.5V54.1667Z" stroke="black" stroke-width="8" stroke-linecap="round" stroke-linejoin="round"/>
</svg>
