<svg width="162" height="161" viewBox="0 0 162 161" fill="none" xmlns="http://www.w3.org/2000/svg">
<path d="M13.6103 85.5759C10.8333 85.5759 8.58203 83.3247 8.58203 80.5477C8.58203 40.7435 40.8497 8.47583 80.6539 8.47583C120.458 8.47583 152.726 40.7435 152.726 80.5477C152.726 120.352 120.458 152.62 80.6539 152.62C60.4936 152.62 42.2591 144.335 29.1845 130.998C27.2404 129.015 27.2721 125.832 29.2551 123.887C31.2382 121.943 34.4218 121.975 36.3658 123.958C47.627 135.445 63.3047 142.563 80.6539 142.563C114.904 142.563 142.669 114.798 142.669 80.5477C142.669 46.2976 114.904 18.5324 80.6539 18.5324C46.4038 18.5324 18.6386 46.2976 18.6386 80.5477C18.6386 83.3247 16.3873 85.5759 13.6103 85.5759Z" fill="black"/>
<path d="M33.7234 85.5759C30.9463 85.5759 28.6951 83.3247 28.6951 80.5477C28.6951 51.8516 51.9578 28.5889 80.6539 28.5889C109.35 28.5889 132.613 51.8516 132.613 80.5477C132.613 109.244 109.35 132.506 80.6539 132.506C77.8768 132.506 75.6256 130.255 75.6256 127.478C75.6256 124.701 77.8768 122.45 80.6539 122.45C103.796 122.45 122.556 103.69 122.556 80.5477C122.556 57.4057 103.796 38.6454 80.6539 38.6454C57.5119 38.6454 38.7516 57.4057 38.7516 80.5477C38.7516 83.3247 36.5004 85.5759 33.7234 85.5759Z" fill="black"/>
<path d="M48.8082 80.5477C48.8082 83.3247 51.0594 85.5759 53.8364 85.5759C56.6135 85.5759 58.8647 83.3247 58.8647 80.5477C58.8647 68.5138 68.62 58.7585 80.6539 58.7585C92.6877 58.7585 102.443 68.5138 102.443 80.5477C102.443 83.3247 104.694 85.5759 107.471 85.5759C110.248 85.5759 112.5 83.3247 112.5 80.5477C112.5 62.9598 98.2418 48.702 80.6539 48.702C63.066 48.702 48.8082 62.9598 48.8082 80.5477Z" fill="black"/>
</svg>
