<svg width="1354" height="827" viewBox="0 0 1354 827" fill="none" xmlns="http://www.w3.org/2000/svg">
<path d="M114.324 880.019C72.1024 878.589 30.8368 874.358 -9.02131 867.371C-97.7169 851.975 -178.02 822.722 -245.362 781.275C-246.216 780.849 -247.031 780.385 -247.806 779.887C-246.422 779.868 -245.027 779.791 -243.625 779.656C-177.812 773.974 -111.607 758.393 -48.9475 733.842C13.712 709.29 71.5454 676.27 121.11 636.745C123.772 634.675 126.583 632.704 129.284 630.629C131.986 628.555 133.823 627.217 136.164 625.298C185.696 586.177 231.338 544.455 272.56 500.617C300.912 471.023 328.708 440.384 355.426 410.767C374.303 389.993 393.652 368.527 413.076 347.721C495.708 259.12 598.76 160.455 735.637 100.171C847.115 51.1562 971.107 32.3689 1083.24 47.5024C1195.37 62.6359 1287.54 110.596 1341.61 181.955C1325.41 181.971 1308.87 183.58 1292.4 186.744L1293.74 184.587L1272.97 190.994C1259.3 194.579 1245.84 198.994 1232.73 204.188C1169 231.628 1111.38 268.234 1063.87 311.462C1000.5 365.715 928.616 439.566 865.186 504.709C847.518 522.992 830.659 540.196 815.211 556.022C750.689 626.236 677.294 692.281 596.36 752.96C519.699 806.778 427.534 844.865 331.767 862.3C330.564 862.594 329.352 862.835 328.138 863.022C256.307 876.759 184.224 882.489 114.324 880.019Z" fill="#F88818" fill-opacity="0.2"/>
<path d="M-327.515 749.425C-439.731 733.382 -542.084 699.606 -628.568 650.076C-611.283 654.766 -592.34 656.769 -572.704 655.981C-523.096 651.874 -473.136 640.674 -425.498 622.982C-366.882 603.118 -313.194 572.943 -269.63 535.376C-263.049 529.642 -256.428 523.904 -250.264 518.012C-222.637 491.674 -185.144 450.685 -148.443 412.401C-125.446 387.617 -100.683 363.65 -74.2972 340.639C-29.7554 303.811 21.5122 271.936 77.2475 246.416C159.357 209.34 247.516 184.096 336.306 172.236C423.518 160.105 509.931 159.278 591.72 169.793C403.756 300.291 334.069 407.225 223.988 523.614C221.779 525.983 219.814 528.18 217.455 530.449C202.841 545.831 186.69 561.528 169.544 576.987C159.787 585.827 149.743 594.495 139.412 602.992L138.961 603.361C137.568 604.505 135.977 605.701 134.588 606.757C122.87 616.289 110.691 625.728 97.7983 635.391C73.7464 653.153 48.2459 669.726 21.5217 684.96C-37.4701 717.361 -103.906 738.833 -171.024 747.193C-224.333 754.308 -277.158 755.061 -327.515 749.425Z" fill="#F88818" fill-opacity="0.2"/>
</svg>
