<svg width="128" height="60" viewBox="0 0 128 60" fill="none" xmlns="http://www.w3.org/2000/svg">
<path d="M97.1508 35.8165C96.007 33.1123 94.1991 30.7405 91.8946 28.9211C91.1178 30.8898 89.9793 32.6956 88.5378 34.2453C88.6611 34.3618 88.7784 34.4825 88.8949 34.6024C89.8965 35.6602 90.6936 36.8943 91.2458 38.2423C91.8198 39.6159 92.1153 41.0898 92.1153 42.5786C92.1153 44.0673 91.8198 45.5412 91.2458 46.9148C90.6865 48.2591 89.8902 49.492 88.8949 50.5547C87.907 51.6047 86.7294 52.4583 85.4242 53.0706C84.0853 53.6886 82.6281 54.0087 81.1534 54.0087C79.6787 54.0087 78.2216 53.6886 76.8826 53.0706C75.5774 52.4583 74.3998 51.6047 73.4119 50.5547C72.4158 49.4922 71.6186 48.2593 71.0584 46.9148C70.4865 45.5406 70.1921 44.067 70.1921 42.5786C70.1921 41.0902 70.4865 39.6164 71.0584 38.2423C71.6116 36.8941 72.4095 35.6601 73.4119 34.6024C74.0155 33.9696 74.6899 33.4084 75.4219 32.9299C74.8483 32.5077 74.3009 32.0512 73.7826 31.5628C72.7986 30.59 71.9872 29.4568 71.3832 28.2119C70.4874 28.8195 69.6515 29.511 68.8869 30.2772C67.3022 31.869 66.0361 33.7488 65.1568 35.8157C64.2505 37.9551 63.7834 40.255 63.7834 42.5786C63.7834 44.9021 64.2505 47.2019 65.1568 49.3414C66.9336 53.499 70.2456 56.8111 74.4033 58.5878C76.5388 59.4941 78.8348 59.9611 81.1547 59.9611C83.4745 59.9611 85.7706 59.4941 87.9061 58.5878C92.0637 56.8111 95.3758 53.499 97.1525 49.3414C98.0588 47.2019 98.5258 44.9021 98.5258 42.5786C98.5258 40.255 98.0588 37.9552 97.1525 35.8157L97.1508 35.8165Z" fill="black"/>
<path d="M11.0435 47.2231V59.2967H17.7145V47.2308C16.6139 47.43 15.4975 47.529 14.379 47.5267C13.2602 47.5284 12.1436 47.4268 11.0435 47.2231Z" fill="black"/>
<path d="M22.3434 25.8389V30.3868C22.3939 31.8182 22.1116 33.2417 21.5187 34.5454C21.0392 35.5536 20.3423 36.443 19.4781 37.1497C18.7102 37.7689 17.8214 38.2206 16.8687 38.4761C15.2412 38.963 13.5069 38.963 11.8794 38.4761C10.9266 38.221 10.0377 37.7692 9.27002 37.1497C8.40719 36.4427 7.71175 35.5533 7.23369 34.5454C6.64077 33.2417 6.35845 31.8182 6.40895 30.3868V25.8389H0.00147947V30.4191C-0.025781 32.4046 0.323907 34.3772 1.03198 36.2323C1.6729 37.9024 2.6638 39.4159 3.93813 40.6714C5.23529 41.9216 6.7787 42.8879 8.46996 43.5087C12.3074 44.852 16.4874 44.852 20.3249 43.5087C22.016 42.888 23.5591 41.9216 24.8559 40.6714C26.1282 39.4185 27.1127 37.9038 27.7408 36.2323C28.4328 34.3735 28.7742 32.4024 28.7475 30.4191V25.8389H22.3434Z" fill="black"/>
<path d="M127.544 30.082C127.544 28.9565 127.097 27.8771 126.301 27.0813C125.505 26.2855 124.426 25.8384 123.3 25.8384H103.461V31.7425H118.926C119.016 31.7424 119.104 31.7679 119.18 31.8162C119.256 31.8645 119.316 31.9334 119.354 32.015C119.393 32.0965 119.407 32.1872 119.395 32.2765C119.383 32.3657 119.346 32.4498 119.289 32.5188L102.575 52.52C101.919 53.3054 101.559 54.2963 101.559 55.3198C101.559 56.3745 101.978 57.386 102.724 58.1317C103.47 58.8775 104.481 59.2964 105.536 59.2964H126.302V53.3447H110.463C110.373 53.3445 110.285 53.3186 110.209 53.2702C110.134 53.2218 110.073 53.1527 110.035 53.0712C109.997 52.9897 109.983 52.899 109.995 52.8098C110.006 52.7207 110.043 52.6366 110.101 52.5676L126.451 33.0808C127.156 32.2406 127.543 31.1789 127.544 30.082Z" fill="black"/>
<path d="M59.5784 39.7725H43.6855V45.6766H59.5784V39.7725Z" fill="black"/>
<path d="M42.8767 25.8119V25.8315C41.4793 25.8172 40.0927 26.0771 38.7955 26.5967C37.7086 27.0619 36.7605 27.8003 36.0432 28.7401C35.3576 29.669 34.8834 30.7367 34.6539 31.8682C34.3951 33.1163 34.2688 34.3883 34.2773 35.6629V59.3235H41.1132V35.9162C41.0739 34.8528 41.3031 33.7966 41.7798 32.8451C42.205 32.0638 43.1598 31.6667 44.6129 31.6386H59.5772V25.811L42.8767 25.8119Z" fill="black"/>
<path d="M91.8656 25.8322C91.6869 26.756 91.4295 27.6629 91.0961 28.5428C90.3587 30.5006 89.2436 32.2944 87.8142 33.822C87.7989 33.8412 87.7828 33.8596 87.7657 33.8772C87.7696 33.847 87.7719 33.8167 87.7725 33.7863C87.8198 32.3572 87.5791 30.9332 87.0648 29.599C86.5505 28.2648 85.7731 27.0477 84.7788 26.0201C84.7269 25.9648 84.6784 25.9062 84.6266 25.8501C84.5747 25.7939 84.5416 25.7557 84.4931 25.7072C83.5105 24.6798 82.4393 23.7409 81.2919 22.9014C80.519 22.3232 79.7138 21.7587 78.935 21.2162C78.3891 20.8327 77.8246 20.4399 77.2796 20.0446C74.9584 18.3628 72.4094 16.2491 71.0915 13.3438C70.0206 10.9775 69.8735 8.29621 70.6792 5.827C71.4849 3.35779 73.1852 1.27925 75.4456 0C75.3936 0.353679 75.387 0.712573 75.4261 1.06792L75.3674 1.04156L75.4873 1.48625C75.5477 1.77978 75.6331 2.06763 75.7424 2.34669C76.3376 3.70013 77.2205 4.90768 78.3296 5.88541C79.7096 7.19393 81.6346 8.66148 83.3325 9.95641C83.8095 10.3169 84.2576 10.6612 84.67 10.9767C86.5125 12.2885 88.2045 13.7997 89.7153 15.483C91.0394 17.0825 91.8536 19.0422 92.0526 21.1091C92.0573 21.1349 92.0604 21.1611 92.062 21.1873C92.2305 22.7367 92.1643 24.3026 91.8656 25.8322Z" fill="white"/>
<path d="M85.6152 35.9543C84.7825 38.4314 83.4635 40.7174 81.7355 42.678C81.9286 42.2934 82.0486 41.8762 82.0892 41.4477C82.13 40.3681 81.9647 39.2906 81.602 38.2729C81.2115 37.018 80.5037 35.8852 79.547 34.9841C79.4007 34.8481 79.2545 34.7112 79.1023 34.5845C78.4221 34.0165 77.3457 33.253 76.3458 32.5031C75.696 32.0343 75.0758 31.5257 74.4888 30.9803C73.5569 30.0568 72.7915 28.9793 72.2264 27.7953C71.409 26.0502 70.957 24.1565 70.8983 22.2304C70.8265 20.3392 71.0825 18.4499 71.655 16.646C74.8595 20.5775 77.7589 21.9541 80.8036 24.2013C80.8657 24.2464 80.9235 24.2863 80.9822 24.3348C81.3844 24.6332 81.7908 24.9648 82.187 25.3185C82.4137 25.5197 82.6345 25.7275 82.8493 25.9418L82.8587 25.9511C82.8876 25.98 82.9174 26.0132 82.9437 26.0421C83.1843 26.2852 83.4207 26.5386 83.6613 26.8073C84.1024 27.3089 84.5041 27.8439 84.8627 28.4074C85.6184 29.6532 86.0306 31.0769 86.0573 32.5337C86.0924 33.6901 85.9431 34.8448 85.6152 35.9543Z" fill="white"/>
</svg>
